# xmcd
# 
# Track frame offsets:
#     183
#     13335
#     22465
#     30300
#     39425
#     51058
#     61833
#     77525
#     88168
#     100393
#     114183
#     126725
# 
# Disc length: 1886
# 
# Revision: 16
# Processed by: cddbd v1.5.2PL0 Copyright (c) Steve Scherf et al.
# Submitted via: fre:ac v1.0.31
# 
DISCID=9b075c0c
DTITLE=Various Artist - La Bamba OST
DYEAR=1987
DGENRE=Pop
TTITLE0=Los Lobos - La Bamba
TTITLE1=Los Lobos - Come On, Let's Go
TTITLE2=Los Lobos - Ooh! My Head
TTITLE3=Los Lobos - We Belong Together
TTITLE4=Los Lobos - Framed
TTITLE5=Los Lobos - Donna
TTITLE6=Howard Huntsberry - Lonely Teardrops
TTITLE7=Marshall Crenshaw - Crying, Waiting, Hoping
TTITLE8=Brian Setzer - Summertime Blues
TTITLE9=Bo Diddley - Who Do You Love
TTITLE10=Los Lobos - Charlena
TTITLE11=Los Lobos - Goodnight My Love
EXTD=
EXTT0=
EXTT1=
EXTT2=
EXTT3=
EXTT4=
EXTT5=
EXTT6=
EXTT7=
EXTT8=
EXTT9=
EXTT10=
EXTT11=
PLAYORDER=
